<?xml version="1.0" encoding="UTF-8"?>
<svg xmlns="http://www.w3.org/2000/svg" xmlns:xlink="http://www.w3.org/1999/xlink" width="14px" height="14px" viewBox="0 0 14 14">
    <path d="M 13.78125 7 C 13.78125 10.746094 10.746094 13.78125 7 13.78125 C 3.253906 13.78125 0.21875 10.746094 0.21875 7 C 0.21875 3.257812 3.253906 0.21875 7 0.21875 C 10.746094 0.21875 13.78125 3.257812 13.78125 7 Z M 7 8.367188 C 6.304688 8.367188 5.742188 8.929688 5.742188 9.625 C 5.742188 10.320312 6.304688 10.882812 7 10.882812 C 7.695312 10.882812 8.257812 10.320312 8.257812 9.625 C 8.257812 8.929688 7.695312 8.367188 7 8.367188 Z M 5.804688 3.847656 L 6.007812 7.566406 C 6.019531 7.738281 6.160156 7.875 6.335938 7.875 L 7.664062 7.875 C 7.839844 7.875 7.980469 7.738281 7.992188 7.566406 L 8.195312 3.847656 C 8.203125 3.65625 8.054688 3.5 7.867188 3.5 L 6.132812 3.5 C 5.945312 3.5 5.796875 3.65625 5.804688 3.847656 Z M 5.804688 3.847656 "/>
</svg>