<?xml version="1.0" encoding="UTF-8"?>
<svg xmlns="http://www.w3.org/2000/svg" xmlns:xlink="http://www.w3.org/1999/xlink" width="12px" height="13px" viewBox="0 0 12 13">
    <path d="M 0.429688 5.6875 L 11.570312 5.6875 C 11.808594 5.6875 12 5.503906 12 5.28125 L 12 4.46875 C 12 4.246094 11.808594 4.0625 11.570312 4.0625 L 0.429688 4.0625 C 0.191406 4.0625 0 4.246094 0 4.46875 L 0 5.28125 C 0 5.503906 0.191406 5.6875 0.429688 5.6875 Z M 11.570312 10.5625 L 0.429688 10.5625 C 0.191406 10.5625 0 10.746094 0 10.96875 L 0 11.78125 C 0 12.003906 0.191406 12.1875 0.429688 12.1875 L 11.570312 12.1875 C 11.808594 12.1875 12 12.003906 12 11.78125 L 12 10.96875 C 12 10.746094 11.808594 10.5625 11.570312 10.5625 Z M 11.65625 0.8125 L 4.628906 0.8125 C 4.539062 0.8125 4.449219 0.847656 4.386719 0.90625 C 4.320312 0.96875 4.285156 1.050781 4.285156 1.136719 L 4.285156 2.113281 C 4.285156 2.199219 4.320312 2.28125 4.386719 2.34375 C 4.449219 2.402344 4.539062 2.4375 4.628906 2.4375 L 11.65625 2.4375 C 11.746094 2.4375 11.835938 2.402344 11.898438 2.34375 C 11.964844 2.28125 12 2.199219 12 2.113281 L 12 1.136719 C 12 1.050781 11.964844 0.96875 11.898438 0.90625 C 11.835938 0.847656 11.746094 0.8125 11.65625 0.8125 Z M 11.65625 7.3125 L 4.628906 7.3125 C 4.539062 7.3125 4.449219 7.347656 4.386719 7.40625 C 4.320312 7.46875 4.285156 7.550781 4.285156 7.636719 L 4.285156 8.613281 C 4.285156 8.699219 4.320312 8.78125 4.386719 8.84375 C 4.449219 8.902344 4.539062 8.9375 4.628906 8.9375 L 11.65625 8.9375 C 11.746094 8.9375 11.835938 8.902344 11.898438 8.84375 C 11.964844 8.78125 12 8.699219 12 8.613281 L 12 7.636719 C 12 7.550781 11.964844 7.46875 11.898438 7.40625 C 11.835938 7.347656 11.746094 7.3125 11.65625 7.3125 Z M 11.65625 7.3125 "/>
</svg>