<?xml version="1.0" encoding="UTF-8"?>
<svg xmlns="http://www.w3.org/2000/svg" xmlns:xlink="http://www.w3.org/1999/xlink" width="12px" height="13px" viewBox="0 0 12 13">
    <path d="M 0.34375 8.9375 L 7.371094 8.9375 C 7.460938 8.9375 7.550781 8.902344 7.613281 8.84375 C 7.679688 8.78125 7.714844 8.699219 7.714844 8.613281 L 7.714844 7.636719 C 7.714844 7.550781 7.679688 7.46875 7.613281 7.40625 C 7.550781 7.347656 7.460938 7.3125 7.371094 7.3125 L 0.34375 7.3125 C 0.253906 7.3125 0.164062 7.347656 0.101562 7.40625 C 0.0351562 7.46875 0 7.550781 0 7.636719 L 0 8.613281 C 0 8.699219 0.0351562 8.78125 0.101562 8.84375 C 0.164062 8.902344 0.253906 8.9375 0.34375 8.9375 Z M 0.34375 2.4375 L 7.371094 2.4375 C 7.460938 2.4375 7.550781 2.402344 7.613281 2.34375 C 7.679688 2.28125 7.714844 2.199219 7.714844 2.113281 L 7.714844 1.136719 C 7.714844 1.050781 7.679688 0.96875 7.613281 0.90625 C 7.550781 0.847656 7.460938 0.8125 7.371094 0.8125 L 0.34375 0.8125 C 0.253906 0.8125 0.164062 0.847656 0.101562 0.90625 C 0.0351562 0.96875 0 1.050781 0 1.136719 L 0 2.113281 C 0 2.199219 0.0351562 2.28125 0.101562 2.34375 C 0.164062 2.402344 0.253906 2.4375 0.34375 2.4375 Z M 11.570312 4.0625 L 0.429688 4.0625 C 0.191406 4.0625 0 4.246094 0 4.46875 L 0 5.28125 C 0 5.503906 0.191406 5.6875 0.429688 5.6875 L 11.570312 5.6875 C 11.808594 5.6875 12 5.503906 12 5.28125 L 12 4.46875 C 12 4.246094 11.808594 4.0625 11.570312 4.0625 Z M 11.570312 10.5625 L 0.429688 10.5625 C 0.191406 10.5625 0 10.746094 0 10.96875 L 0 11.78125 C 0 12.003906 0.191406 12.1875 0.429688 12.1875 L 11.570312 12.1875 C 11.808594 12.1875 12 12.003906 12 11.78125 L 12 10.96875 C 12 10.746094 11.808594 10.5625 11.570312 10.5625 Z M 11.570312 10.5625 "/>
</svg>