<?xml version="1.0" encoding="UTF-8"?>
<svg xmlns="http://www.w3.org/2000/svg" xmlns:xlink="http://www.w3.org/1999/xlink" width="12px" height="13px" viewBox="0 0 12 13">
    <path d="M 11.570312 4.0625 L 0.429688 4.0625 C 0.191406 4.0625 0 4.246094 0 4.46875 L 0 5.28125 C 0 5.503906 0.191406 5.6875 0.429688 5.6875 L 11.570312 5.6875 C 11.808594 5.6875 12 5.503906 12 5.28125 L 12 4.46875 C 12 4.246094 11.808594 4.0625 11.570312 4.0625 Z M 11.570312 10.5625 L 0.429688 10.5625 C 0.191406 10.5625 0 10.746094 0 10.96875 L 0 11.78125 C 0 12.003906 0.191406 12.1875 0.429688 12.1875 L 11.570312 12.1875 C 11.808594 12.1875 12 12.003906 12 11.78125 L 12 10.96875 C 12 10.746094 11.808594 10.5625 11.570312 10.5625 Z M 2.894531 2.4375 L 9.105469 2.4375 C 9.285156 2.4375 9.429688 2.300781 9.429688 2.128906 L 9.429688 1.121094 C 9.429688 0.949219 9.285156 0.8125 9.105469 0.8125 L 2.894531 0.8125 C 2.714844 0.8125 2.570312 0.949219 2.570312 1.121094 L 2.570312 2.128906 C 2.570312 2.300781 2.714844 2.4375 2.894531 2.4375 Z M 9.105469 8.9375 C 9.285156 8.9375 9.429688 8.800781 9.429688 8.628906 L 9.429688 7.621094 C 9.429688 7.449219 9.285156 7.3125 9.105469 7.3125 L 2.894531 7.3125 C 2.714844 7.3125 2.570312 7.449219 2.570312 7.621094 L 2.570312 8.628906 C 2.570312 8.800781 2.714844 8.9375 2.894531 8.9375 Z M 9.105469 8.9375 "/>
</svg>