<?xml version="1.0" encoding="UTF-8"?>
<svg xmlns="http://www.w3.org/2000/svg" xmlns:xlink="http://www.w3.org/1999/xlink" height="12px" height="13px" viewBox="0 0 12 13">
    <path d="M 11.066406 5.648438 L 11.660156 6.214844 C 11.910156 6.453125 11.910156 6.835938 11.660156 7.074219 L 6.457031 12.007812 C 6.203125 12.25 5.796875 12.25 5.546875 12.007812 L 0.339844 7.074219 C 0.0898438 6.835938 0.0898438 6.449219 0.339844 6.214844 L 0.933594 5.648438 C 1.1875 5.410156 1.605469 5.414062 1.855469 5.660156 L 4.929688 8.71875 L 4.929688 1.421875 C 4.929688 1.085938 5.214844 0.8125 5.570312 0.8125 L 6.429688 0.8125 C 6.785156 0.8125 7.070312 1.085938 7.070312 1.421875 L 7.070312 8.71875 L 10.144531 5.660156 C 10.394531 5.410156 10.8125 5.40625 11.066406 5.648438 Z M 11.066406 5.648438 "/>
</svg>