<?xml version="1.0" encoding="UTF-8"?>
<svg xmlns="http://www.w3.org/2000/svg" xmlns:xlink="http://www.w3.org/1999/xlink" height="12px" height="13px" viewBox="0 0 12 13">
    <path d="M 6.898438 11.300781 L 6.300781 11.863281 C 6.050781 12.105469 5.644531 12.105469 5.394531 11.863281 L 0.1875 6.929688 C -0.0625 6.691406 -0.0625 6.308594 0.1875 6.070312 L 5.394531 1.136719 C 5.644531 0.894531 6.054688 0.894531 6.300781 1.136719 L 6.898438 1.699219 C 7.152344 1.941406 7.144531 2.332031 6.886719 2.570312 L 3.660156 5.484375 L 11.355469 5.484375 C 11.714844 5.484375 12 5.757812 12 6.09375 L 12 6.90625 C 12 7.242188 11.714844 7.515625 11.355469 7.515625 L 3.660156 7.515625 L 6.886719 10.429688 C 7.148438 10.667969 7.15625 11.058594 6.898438 11.300781 Z M 6.898438 11.300781 "/>
</svg>