<?xml version="1.0" encoding="UTF-8"?>
<svg xmlns="http://www.w3.org/2000/svg" xmlns:xlink="http://www.w3.org/1999/xlink" height="12px" height="13px" viewBox="0 0 12 13">
    <path d="M 0.933594 7.351562 L 0.339844 6.785156 C 0.0898438 6.546875 0.0898438 6.164062 0.339844 5.925781 L 5.542969 0.992188 C 5.796875 0.75 6.203125 0.75 6.453125 0.992188 L 11.65625 5.921875 C 11.910156 6.164062 11.910156 6.546875 11.65625 6.785156 L 11.0625 7.347656 C 10.808594 7.589844 10.394531 7.585938 10.144531 7.335938 L 7.070312 4.28125 L 7.070312 11.578125 C 7.070312 11.914062 6.785156 12.1875 6.429688 12.1875 L 5.570312 12.1875 C 5.214844 12.1875 4.929688 11.914062 4.929688 11.578125 L 4.929688 4.28125 L 1.855469 7.339844 C 1.605469 7.589844 1.1875 7.59375 0.933594 7.351562 Z M 0.933594 7.351562 "/>
</svg>