<?xml version="1.0" encoding="UTF-8"?>
<svg xmlns="http://www.w3.org/2000/svg" xmlns:xlink="http://www.w3.org/1999/xlink" width="14px" height="14px" viewBox="0 0 14 14">
    <path d="M 13.328125 8.632812 L 12.164062 7.960938 C 12.28125 7.324219 12.28125 6.675781 12.164062 6.039062 L 13.328125 5.367188 C 13.460938 5.289062 13.523438 5.132812 13.476562 4.984375 C 13.175781 4.011719 12.65625 3.128906 11.980469 2.398438 C 11.878906 2.285156 11.707031 2.257812 11.578125 2.335938 L 10.414062 3.007812 C 9.921875 2.585938 9.359375 2.261719 8.75 2.046875 L 8.75 0.707031 C 8.75 0.550781 8.644531 0.417969 8.492188 0.386719 C 7.488281 0.160156 6.460938 0.171875 5.507812 0.386719 C 5.355469 0.417969 5.25 0.550781 5.25 0.707031 L 5.25 2.050781 C 4.644531 2.265625 4.078125 2.59375 3.585938 3.011719 L 2.425781 2.335938 C 2.292969 2.261719 2.125 2.285156 2.019531 2.402344 C 1.34375 3.132812 0.828125 4.011719 0.523438 4.988281 C 0.480469 5.136719 0.542969 5.292969 0.675781 5.371094 L 1.839844 6.042969 C 1.722656 6.675781 1.722656 7.328125 1.839844 7.960938 L 0.675781 8.636719 C 0.542969 8.710938 0.480469 8.871094 0.523438 9.019531 C 0.828125 9.992188 1.34375 10.871094 2.019531 11.605469 C 2.125 11.71875 2.292969 11.742188 2.425781 11.667969 L 3.589844 10.996094 C 4.078125 11.414062 4.644531 11.742188 5.253906 11.953125 L 5.253906 13.300781 C 5.253906 13.453125 5.359375 13.585938 5.511719 13.621094 C 6.511719 13.84375 7.542969 13.832031 8.496094 13.621094 C 8.644531 13.585938 8.753906 13.453125 8.753906 13.300781 L 8.753906 11.953125 C 9.359375 11.738281 9.921875 11.414062 10.414062 10.996094 L 11.582031 11.667969 C 11.714844 11.742188 11.882812 11.71875 11.984375 11.605469 C 12.660156 10.875 13.175781 9.992188 13.480469 9.019531 C 13.523438 8.867188 13.460938 8.707031 13.328125 8.632812 Z M 7 9.1875 C 5.792969 9.1875 4.8125 8.207031 4.8125 7 C 4.8125 5.792969 5.792969 4.8125 7 4.8125 C 8.207031 4.8125 9.1875 5.792969 9.1875 7 C 9.1875 8.207031 8.207031 9.1875 7 9.1875 Z M 7 9.1875 "/>
</svg>