<?xml version="1.0" encoding="UTF-8"?>
<svg xmlns="http://www.w3.org/2000/svg" xmlns:xlink="http://www.w3.org/1999/xlink" width="10px" height="14px" viewBox="0 0 10 14">
    <path d="M 5.832031 0.605469 C 5.605469 -0.183594 4.425781 -0.21875 4.167969 0.605469 C 2.839844 4.917969 0 6.089844 0 9.128906 C 0 11.820312 2.238281 14 5 14 C 7.761719 14 10 11.820312 10 9.128906 C 10 6.074219 7.164062 4.9375 5.832031 0.605469 Z M 5 12.25 C 3.246094 12.25 1.816406 10.875 1.816406 9.1875 C 1.816406 8.945312 2.023438 8.75 2.273438 8.75 C 2.523438 8.75 2.726562 8.945312 2.726562 9.1875 C 2.726562 10.394531 3.746094 11.375 5 11.375 C 5.25 11.375 5.453125 11.570312 5.453125 11.8125 C 5.453125 12.054688 5.25 12.25 5 12.25 Z M 5 12.25 "/>
</svg>