<?xml version="1.0" encoding="UTF-8"?>
<svg xmlns="http://www.w3.org/2000/svg" xmlns:xlink="http://www.w3.org/1999/xlink" width="10px" height="14px" viewBox="0 0 10 14">
    <path d="M 6.894531 7 L 9.738281 4.265625 C 10.085938 3.929688 10.085938 3.382812 9.738281 3.046875 L 9.105469 2.4375 C 8.757812 2.105469 8.191406 2.105469 7.84375 2.4375 L 5 5.175781 L 2.15625 2.4375 C 1.808594 2.105469 1.242188 2.105469 0.894531 2.4375 L 0.261719 3.046875 C -0.0859375 3.382812 -0.0859375 3.925781 0.261719 4.265625 L 3.105469 7 L 0.261719 9.734375 C -0.0859375 10.070312 -0.0859375 10.617188 0.261719 10.953125 L 0.894531 11.5625 C 1.242188 11.894531 1.808594 11.894531 2.15625 11.5625 L 5 8.824219 L 7.84375 11.5625 C 8.191406 11.894531 8.757812 11.894531 9.105469 11.5625 L 9.738281 10.953125 C 10.085938 10.617188 10.085938 10.074219 9.738281 9.734375 Z M 6.894531 7 "/>
</svg>