<?xml version="1.0" encoding="UTF-8"?>
<svg xmlns="http://www.w3.org/2000/svg" xmlns:xlink="http://www.w3.org/1999/xlink" width="15px" height="14px" viewBox="0 0 15 14">
    <path d="M 7.917969 0.875 L 0.417969 0.875 C 0.1875 0.875 0 1.070312 0 1.3125 L 0 3.9375 C 0 4.179688 0.1875 4.375 0.417969 4.375 L 1.25 4.375 C 1.480469 4.375 1.667969 4.179688 1.667969 3.9375 L 1.667969 3.0625 L 3.125 3.0625 L 3.125 11.375 L 2.082031 11.375 C 1.851562 11.375 1.667969 11.570312 1.667969 11.8125 L 1.667969 12.6875 C 1.667969 12.929688 1.851562 13.125 2.082031 13.125 L 6.25 13.125 C 6.480469 13.125 6.667969 12.929688 6.667969 12.6875 L 6.667969 11.8125 C 6.667969 11.570312 6.480469 11.375 6.25 11.375 L 5.207031 11.375 L 5.207031 3.0625 L 6.667969 3.0625 L 6.667969 3.9375 C 6.667969 4.179688 6.851562 4.375 7.082031 4.375 L 7.917969 4.375 C 8.148438 4.375 8.332031 4.179688 8.332031 3.9375 L 8.332031 1.3125 C 8.332031 1.070312 8.148438 0.875 7.917969 0.875 Z M 14.582031 10.0625 L 13.332031 10.0625 L 13.332031 3.9375 L 14.582031 3.9375 C 14.957031 3.9375 15.140625 3.464844 14.878906 3.191406 L 12.792969 1.003906 C 12.632812 0.832031 12.367188 0.832031 12.207031 1.003906 L 10.121094 3.191406 C 9.878906 3.445312 10.007812 3.9375 10.417969 3.9375 L 11.667969 3.9375 L 11.667969 10.0625 L 10.417969 10.0625 C 10.042969 10.0625 9.863281 10.535156 10.121094 10.808594 L 12.207031 12.996094 C 12.367188 13.167969 12.632812 13.167969 12.792969 12.996094 L 14.878906 10.808594 C 15.121094 10.554688 14.992188 10.0625 14.582031 10.0625 Z M 14.582031 10.0625 "/>
</svg>