<?xml version="1.0" encoding="UTF-8"?>
<svg xmlns="http://www.w3.org/2000/svg" xmlns:xlink="http://www.w3.org/1999/xlink" width="14px" height="14px" viewBox="0 0 14 14">
    <path d="M 8.96875 7 C 8.96875 8.089844 8.089844 8.96875 7 8.96875 C 5.910156 8.96875 5.03125 8.089844 5.03125 7 C 5.03125 5.910156 5.910156 5.03125 7 5.03125 C 8.089844 5.03125 8.96875 5.910156 8.96875 7 Z M 11.8125 5.03125 C 10.722656 5.03125 9.84375 5.910156 9.84375 7 C 9.84375 8.089844 10.722656 8.96875 11.8125 8.96875 C 12.902344 8.96875 13.78125 8.089844 13.78125 7 C 13.78125 5.910156 12.902344 5.03125 11.8125 5.03125 Z M 2.1875 5.03125 C 1.097656 5.03125 0.21875 5.910156 0.21875 7 C 0.21875 8.089844 1.097656 8.96875 2.1875 8.96875 C 3.277344 8.96875 4.15625 8.089844 4.15625 7 C 4.15625 5.910156 3.277344 5.03125 2.1875 5.03125 Z M 2.1875 5.03125 "/>
</svg>