<?xml version="1.0" encoding="UTF-8"?>
<svg xmlns="http://www.w3.org/2000/svg" xmlns:xlink="http://www.w3.org/1999/xlink" width="14px" height="14px" viewBox="0 0 14 14">
    <path d="M 12.6875 12.25 L 1.3125 12.25 C 0.585938 12.25 0 11.664062 0 10.9375 L 0 3.0625 C 0 2.335938 0.585938 1.75 1.3125 1.75 L 12.6875 1.75 C 13.414062 1.75 14 2.335938 14 3.0625 L 14 10.9375 C 14 11.664062 13.414062 12.25 12.6875 12.25 Z M 3.0625 3.28125 C 2.21875 3.28125 1.53125 3.96875 1.53125 4.8125 C 1.53125 5.65625 2.21875 6.34375 3.0625 6.34375 C 3.90625 6.34375 4.59375 5.65625 4.59375 4.8125 C 4.59375 3.96875 3.90625 3.28125 3.0625 3.28125 Z M 1.75 10.5 L 12.25 10.5 L 12.25 7.4375 L 9.855469 5.042969 C 9.730469 4.917969 9.519531 4.917969 9.394531 5.042969 L 5.6875 8.75 L 4.167969 7.230469 C 4.042969 7.105469 3.832031 7.105469 3.707031 7.230469 L 1.75 9.1875 Z M 1.75 10.5 "/>
</svg>