<?xml version="1.0" encoding="UTF-8"?>
<svg xmlns="http://www.w3.org/2000/svg" xmlns:xlink="http://www.w3.org/1999/xlink" width="5pt" height="13pt" viewBox="0 0 5 13">
    <path d="M 2.5 4.671875 C 3.535156 4.671875 4.375 5.488281 4.375 6.5 C 4.375 7.511719 3.535156 8.328125 2.5 8.328125 C 1.464844 8.328125 0.625 7.511719 0.625 6.5 C 0.625 5.488281 1.464844 4.671875 2.5 4.671875 Z M 0.625 2.03125 C 0.625 3.042969 1.464844 3.859375 2.5 3.859375 C 3.535156 3.859375 4.375 3.042969 4.375 2.03125 C 4.375 1.019531 3.535156 0.203125 2.5 0.203125 C 1.464844 0.203125 0.625 1.019531 0.625 2.03125 Z M 0.625 10.96875 C 0.625 11.980469 1.464844 12.796875 2.5 12.796875 C 3.535156 12.796875 4.375 11.980469 4.375 10.96875 C 4.375 9.957031 3.535156 9.140625 2.5 9.140625 C 1.464844 9.140625 0.625 9.957031 0.625 10.96875 Z M 0.625 10.96875 "/>
</svg>