<?xml version="1.0" encoding="UTF-8"?>
<svg xmlns="http://www.w3.org/2000/svg" xmlns:xlink="http://www.w3.org/1999/xlink" width="14px" height="14px" viewBox="0 0 14 14">
    <path d="M 12.25 2.625 L 12.25 11.375 L 13.125 11.375 C 13.367188 11.375 13.5625 11.570312 13.5625 11.8125 L 13.5625 12.6875 C 13.5625 12.929688 13.367188 13.125 13.125 13.125 L 8.75 13.125 C 8.507812 13.125 8.3125 12.929688 8.3125 12.6875 L 8.3125 11.8125 C 8.3125 11.570312 8.507812 11.375 8.75 11.375 L 9.625 11.375 L 9.625 7.875 L 4.375 7.875 L 4.375 11.375 L 5.25 11.375 C 5.492188 11.375 5.6875 11.570312 5.6875 11.8125 L 5.6875 12.6875 C 5.6875 12.929688 5.492188 13.125 5.25 13.125 L 0.875 13.125 C 0.632812 13.125 0.4375 12.929688 0.4375 12.6875 L 0.4375 11.8125 C 0.4375 11.570312 0.632812 11.375 0.875 11.375 L 1.75 11.375 L 1.75 2.625 L 0.875 2.625 C 0.632812 2.625 0.4375 2.429688 0.4375 2.1875 L 0.4375 1.3125 C 0.4375 1.070312 0.632812 0.875 0.875 0.875 L 5.25 0.875 C 5.492188 0.875 5.6875 1.070312 5.6875 1.3125 L 5.6875 2.1875 C 5.6875 2.429688 5.492188 2.625 5.25 2.625 L 4.375 2.625 L 4.375 6.125 L 9.625 6.125 L 9.625 2.625 L 8.75 2.625 C 8.507812 2.625 8.3125 2.429688 8.3125 2.1875 L 8.3125 1.3125 C 8.3125 1.070312 8.507812 0.875 8.75 0.875 L 13.125 0.875 C 13.367188 0.875 13.5625 1.070312 13.5625 1.3125 L 13.5625 2.1875 C 13.5625 2.429688 13.367188 2.625 13.125 2.625 Z M 12.25 2.625 "/>
</svg>
