<?xml version="1.0" encoding="UTF-8"?>
<svg xmlns="http://www.w3.org/2000/svg" xmlns:xlink="http://www.w3.org/1999/xlink" width="14px" height="14px" viewBox="0 0 14 14">
    <path d="M 8.929688 5.070312 C 10.566406 6.703125 10.542969 9.328125 8.941406 10.9375 C 8.9375 10.941406 8.933594 10.945312 8.929688 10.945312 L 7.09375 12.785156 C 5.472656 14.40625 2.835938 14.40625 1.214844 12.785156 C -0.40625 11.164062 -0.40625 8.527344 1.214844 6.90625 L 2.230469 5.890625 C 2.5 5.625 2.960938 5.800781 2.976562 6.183594 C 2.996094 6.667969 3.082031 7.152344 3.242188 7.625 C 3.296875 7.78125 3.257812 7.960938 3.136719 8.078125 L 2.78125 8.4375 C 2.015625 9.203125 1.988281 10.449219 2.75 11.222656 C 3.515625 12.003906 4.773438 12.011719 5.546875 11.238281 L 7.382812 9.402344 C 8.15625 8.628906 8.152344 7.382812 7.382812 6.617188 C 7.28125 6.515625 7.179688 6.4375 7.101562 6.382812 C 6.988281 6.304688 6.917969 6.175781 6.910156 6.039062 C 6.902344 5.75 7.003906 5.449219 7.230469 5.222656 L 7.808594 4.644531 C 7.957031 4.496094 8.195312 4.476562 8.371094 4.597656 C 8.570312 4.738281 8.757812 4.894531 8.929688 5.070312 Z M 12.785156 1.214844 C 11.164062 -0.40625 8.527344 -0.40625 6.90625 1.214844 L 5.070312 3.054688 C 5.066406 3.054688 5.0625 3.058594 5.058594 3.0625 C 3.457031 4.671875 3.433594 7.296875 5.070312 8.929688 C 5.242188 9.105469 5.429688 9.261719 5.628906 9.402344 C 5.804688 9.523438 6.042969 9.503906 6.191406 9.355469 L 6.769531 8.777344 C 6.996094 8.550781 7.097656 8.25 7.089844 7.960938 C 7.082031 7.824219 7.011719 7.695312 6.898438 7.617188 C 6.820312 7.5625 6.71875 7.484375 6.617188 7.382812 C 5.847656 6.617188 5.84375 5.371094 6.617188 4.597656 L 8.453125 2.761719 C 9.226562 1.988281 10.484375 1.996094 11.25 2.777344 C 12.011719 3.550781 11.984375 4.796875 11.21875 5.5625 L 10.863281 5.921875 C 10.742188 6.039062 10.703125 6.21875 10.757812 6.375 C 10.917969 6.847656 11.003906 7.332031 11.023438 7.816406 C 11.039062 8.199219 11.5 8.375 11.769531 8.109375 L 12.785156 7.09375 C 14.40625 5.472656 14.40625 2.835938 12.785156 1.214844 Z M 12.785156 1.214844 "/>
</svg>