<?xml version="1.0" encoding="UTF-8"?>
<svg xmlns="http://www.w3.org/2000/svg" xmlns:xlink="http://www.w3.org/1999/xlink" width="15px" height="14px" viewBox="0 0 15 14">
    <path d="M 8.753906 1.75 L 1.246094 1.75 C 0.558594 1.75 0 2.335938 0 3.058594 L 0 10.941406 C 0 11.664062 0.558594 12.25 1.246094 12.25 L 8.753906 12.25 C 9.441406 12.25 10 11.664062 10 10.941406 L 10 3.058594 C 10 2.335938 9.441406 1.75 8.753906 1.75 Z M 13.6875 2.78125 L 10.832031 4.847656 L 10.832031 9.152344 L 13.6875 11.214844 C 14.238281 11.617188 15 11.207031 15 10.511719 L 15 3.484375 C 15 2.792969 14.242188 2.382812 13.6875 2.78125 Z M 13.6875 2.78125 "/>
</svg>