<?xml version="1.0" encoding="UTF-8"?>
<svg xmlns="http://www.w3.org/2000/svg" xmlns:xlink="http://www.w3.org/1999/xlink" width="9px" height="14px" viewBox="0 0 9 14">
    <path d="M 9 1.3125 L 9 2.1875 C 9 2.429688 8.796875 2.625 8.550781 2.625 L 6.785156 2.625 L 4.535156 11.375 L 5.851562 11.375 C 6.097656 11.375 6.300781 11.570312 6.300781 11.8125 L 6.300781 12.6875 C 6.300781 12.929688 6.097656 13.125 5.851562 13.125 L 0.449219 13.125 C 0.203125 13.125 0 12.929688 0 12.6875 L 0 11.8125 C 0 11.570312 0.203125 11.375 0.449219 11.375 L 2.214844 11.375 L 4.464844 2.625 L 3.148438 2.625 C 2.902344 2.625 2.699219 2.429688 2.699219 2.1875 L 2.699219 1.3125 C 2.699219 1.070312 2.902344 0.875 3.148438 0.875 L 8.550781 0.875 C 8.796875 0.875 9 1.070312 9 1.3125 Z M 9 1.3125 "/>
</svg>