<?xml version="1.0" encoding="UTF-8"?>
<svg xmlns="http://www.w3.org/2000/svg" xmlns:xlink="http://www.w3.org/1999/xlink" width="14px" height="14px" viewBox="0 0 14 14">
    <path d="M 1.3125 1.3125 C 0.585938 1.3125 0 1.898438 0 2.625 C 0 3.351562 0.585938 3.9375 1.3125 3.9375 C 2.039062 3.9375 2.625 3.351562 2.625 2.625 C 2.625 1.898438 2.039062 1.3125 1.3125 1.3125 Z M 1.3125 5.6875 C 0.585938 5.6875 0 6.273438 0 7 C 0 7.726562 0.585938 8.3125 1.3125 8.3125 C 2.039062 8.3125 2.625 7.726562 2.625 7 C 2.625 6.273438 2.039062 5.6875 1.3125 5.6875 Z M 1.3125 10.0625 C 0.585938 10.0625 0 10.648438 0 11.375 C 0 12.101562 0.585938 12.6875 1.3125 12.6875 C 2.039062 12.6875 2.625 12.101562 2.625 11.375 C 2.625 10.648438 2.039062 10.0625 1.3125 10.0625 Z M 13.5625 10.5 L 4.8125 10.5 C 4.570312 10.5 4.375 10.695312 4.375 10.9375 L 4.375 11.8125 C 4.375 12.054688 4.570312 12.25 4.8125 12.25 L 13.5625 12.25 C 13.804688 12.25 14 12.054688 14 11.8125 L 14 10.9375 C 14 10.695312 13.804688 10.5 13.5625 10.5 Z M 13.5625 1.75 L 4.8125 1.75 C 4.570312 1.75 4.375 1.945312 4.375 2.1875 L 4.375 3.0625 C 4.375 3.304688 4.570312 3.5 4.8125 3.5 L 13.5625 3.5 C 13.804688 3.5 14 3.304688 14 3.0625 L 14 2.1875 C 14 1.945312 13.804688 1.75 13.5625 1.75 Z M 13.5625 6.125 L 4.8125 6.125 C 4.570312 6.125 4.375 6.320312 4.375 6.5625 L 4.375 7.4375 C 4.375 7.679688 4.570312 7.875 4.8125 7.875 L 13.5625 7.875 C 13.804688 7.875 14 7.679688 14 7.4375 L 14 6.5625 C 14 6.320312 13.804688 6.125 13.5625 6.125 Z M 13.5625 6.125 "/>
</svg>