<?xml version="1.0" encoding="UTF-8"?>
<svg xmlns="http://www.w3.org/2000/svg" xmlns:xlink="http://www.w3.org/1999/xlink" width="14px" height="14px" viewBox="0 0 14 14">
    <path d="M 0 13.125 L 2.570312 14 L 3.484375 13.03125 L 1.757812 11.199219 Z M 3.207031 6.5625 C 2.929688 6.820312 2.820312 7.226562 2.929688 7.601562 L 3.265625 8.773438 L 1.953125 10.167969 L 4.429688 12.796875 L 5.738281 11.40625 L 6.839844 11.765625 C 7.191406 11.878906 7.578125 11.765625 7.820312 11.472656 L 8.738281 10.332031 L 4.277344 5.59375 Z M 13.585938 2.167969 L 11.960938 0.4375 C 11.433594 -0.121094 10.585938 -0.148438 10.027344 0.375 L 4.902344 5.023438 L 9.273438 9.664062 L 13.648438 4.222656 C 14.140625 3.628906 14.113281 2.726562 13.585938 2.167969 Z M 13.585938 2.167969 "/>
</svg>