<?xml version="1.0" encoding="UTF-8"?>
<svg xmlns="http://www.w3.org/2000/svg" xmlns:xlink="http://www.w3.org/1999/xlink" width="12px" height="13px" viewBox="0 0 12 13">
    <path d="M 12 1.21875 L 12 2.03125 C 12 2.253906 11.808594 2.4375 11.570312 2.4375 L 10.285156 2.4375 L 10.285156 11.78125 C 10.285156 12.003906 10.09375 12.1875 9.855469 12.1875 L 9 12.1875 C 8.761719 12.1875 8.570312 12.003906 8.570312 11.78125 L 8.570312 2.4375 L 7.714844 2.4375 L 7.714844 11.78125 C 7.714844 12.003906 7.523438 12.1875 7.285156 12.1875 L 6.429688 12.1875 C 6.191406 12.1875 6 12.003906 6 11.78125 L 6 8.9375 L 5.144531 8.9375 C 2.777344 8.9375 0.855469 7.117188 0.855469 4.875 C 0.855469 2.632812 2.777344 0.8125 5.144531 0.8125 L 11.570312 0.8125 C 11.808594 0.8125 12 0.996094 12 1.21875 Z M 12 1.21875 "/>
</svg>