<?xml version="1.0" encoding="UTF-8"?>
<svg xmlns="http://www.w3.org/2000/svg" xmlns:xlink="http://www.w3.org/1999/xlink" height="12px" height="13px" viewBox="0 0 12 13">
    <path d="M 11.144531 5.28125 L 7.285156 5.28125 L 7.285156 1.625 C 7.285156 1.175781 6.902344 0.8125 6.429688 0.8125 L 5.570312 0.8125 C 5.097656 0.8125 4.714844 1.175781 4.714844 1.625 L 4.714844 5.28125 L 0.855469 5.28125 C 0.382812 5.28125 0 5.644531 0 6.09375 L 0 6.90625 C 0 7.355469 0.382812 7.71875 0.855469 7.71875 L 4.714844 7.71875 L 4.714844 11.375 C 4.714844 11.824219 5.097656 12.1875 5.570312 12.1875 L 6.429688 12.1875 C 6.902344 12.1875 7.285156 11.824219 7.285156 11.375 L 7.285156 7.71875 L 11.144531 7.71875 C 11.617188 7.71875 12 7.355469 12 6.90625 L 12 6.09375 C 12 5.644531 11.617188 5.28125 11.144531 5.28125 Z M 11.144531 5.28125 "/>
</svg>