<?xml version="1.0" encoding="UTF-8"?>
<svg xmlns="http://www.w3.org/2000/svg" xmlns:xlink="http://www.w3.org/1999/xlink" width="14px" height="14px" viewBox="0 0 14 14">
    <path d="M 12.6875 0.875 L 9.1875 0.875 C 8.460938 0.875 7.875 1.460938 7.875 2.1875 L 7.875 5.6875 C 7.875 6.414062 8.460938 7 9.1875 7 L 11.375 7 L 11.375 8.75 C 11.375 9.714844 10.589844 10.5 9.625 10.5 L 9.40625 10.5 C 9.042969 10.5 8.75 10.792969 8.75 11.15625 L 8.75 12.46875 C 8.75 12.832031 9.042969 13.125 9.40625 13.125 L 9.625 13.125 C 12.042969 13.125 14 11.167969 14 8.75 L 14 2.1875 C 14 1.460938 13.414062 0.875 12.6875 0.875 Z M 4.8125 0.875 L 1.3125 0.875 C 0.585938 0.875 0 1.460938 0 2.1875 L 0 5.6875 C 0 6.414062 0.585938 7 1.3125 7 L 3.5 7 L 3.5 8.75 C 3.5 9.714844 2.714844 10.5 1.75 10.5 L 1.53125 10.5 C 1.167969 10.5 0.875 10.792969 0.875 11.15625 L 0.875 12.46875 C 0.875 12.832031 1.167969 13.125 1.53125 13.125 L 1.75 13.125 C 4.167969 13.125 6.125 11.167969 6.125 8.75 L 6.125 2.1875 C 6.125 1.460938 5.539062 0.875 4.8125 0.875 Z M 4.8125 0.875 "/>
</svg>