<?xml version="1.0" encoding="UTF-8"?>
<svg xmlns="http://www.w3.org/2000/svg" xmlns:xlink="http://www.w3.org/1999/xlink" width="17px" height="14px" viewBox="0 0 17 14">
    <path d="M 7.410156 13.984375 L 5.789062 13.503906 C 5.617188 13.453125 5.523438 13.269531 5.570312 13.09375 L 9.195312 0.238281 C 9.242188 0.0625 9.421875 -0.0351562 9.589844 0.015625 L 11.210938 0.496094 C 11.382812 0.546875 11.476562 0.730469 11.429688 0.90625 L 7.804688 13.761719 C 7.753906 13.9375 7.578125 14.039062 7.410156 13.984375 Z M 4.378906 10.917969 L 5.535156 9.648438 C 5.65625 9.515625 5.648438 9.300781 5.515625 9.179688 L 3.109375 7 L 5.515625 4.820312 C 5.648438 4.699219 5.660156 4.484375 5.535156 4.351562 L 4.378906 3.082031 C 4.261719 2.949219 4.058594 2.941406 3.929688 3.066406 L 0.101562 6.757812 C -0.0351562 6.886719 -0.0351562 7.109375 0.101562 7.238281 L 3.929688 10.933594 C 4.058594 11.058594 4.261719 11.050781 4.378906 10.917969 Z M 13.070312 10.933594 L 16.898438 7.242188 C 17.035156 7.113281 17.035156 6.890625 16.898438 6.761719 L 13.070312 3.066406 C 12.945312 2.941406 12.742188 2.949219 12.621094 3.078125 L 11.464844 4.347656 C 11.34375 4.480469 11.351562 4.695312 11.484375 4.816406 L 13.890625 7 L 11.484375 9.179688 C 11.351562 9.300781 11.339844 9.515625 11.464844 9.648438 L 12.621094 10.917969 C 12.738281 11.050781 12.941406 11.058594 13.070312 10.933594 Z M 13.070312 10.933594 "/>
</svg>
