<?xml version="1.0" encoding="UTF-8"?>
<svg xmlns="http://www.w3.org/2000/svg" xmlns:xlink="http://www.w3.org/1999/xlink" width="17px" height="14px" viewBox="0 0 17 14">
    <path d="M 8.5 10.9375 C 6.484375 10.9375 4.855469 9.332031 4.703125 7.296875 L 1.917969 5.082031 C 1.550781 5.554688 1.214844 6.054688 0.941406 6.601562 C 0.820312 6.851562 0.820312 7.148438 0.941406 7.398438 C 2.382812 10.292969 5.234375 12.25 8.5 12.25 C 9.214844 12.25 9.90625 12.140625 10.570312 11.964844 L 9.191406 10.867188 C 8.964844 10.910156 8.730469 10.933594 8.5 10.9375 Z M 16.835938 12.527344 L 13.898438 10.191406 C 14.792969 9.417969 15.523438 8.46875 16.058594 7.398438 C 16.179688 7.148438 16.179688 6.851562 16.058594 6.601562 C 14.617188 3.707031 11.765625 1.75 8.5 1.75 C 7.132812 1.75 5.785156 2.105469 4.585938 2.78125 L 1.207031 0.09375 C 1.023438 -0.0546875 0.753906 -0.0234375 0.609375 0.167969 L 0.0898438 0.859375 C -0.0546875 1.050781 -0.0195312 1.324219 0.164062 1.472656 L 15.792969 13.90625 C 15.976562 14.054688 16.246094 14.023438 16.390625 13.832031 L 16.910156 13.140625 C 17.054688 12.949219 17.019531 12.675781 16.835938 12.527344 Z M 11.957031 8.644531 L 10.910156 7.8125 C 11 7.550781 11.046875 7.277344 11.050781 7 C 11.058594 6.179688 10.691406 5.398438 10.054688 4.902344 C 9.421875 4.40625 8.59375 4.25 7.828125 4.480469 C 7.988281 4.703125 8.074219 4.972656 8.074219 5.25 C 8.070312 5.34375 8.058594 5.433594 8.035156 5.523438 L 6.078125 3.96875 C 6.757812 3.382812 7.613281 3.0625 8.5 3.0625 C 9.515625 3.0625 10.488281 3.476562 11.207031 4.214844 C 11.921875 4.953125 12.324219 5.957031 12.324219 7 C 12.324219 7.589844 12.183594 8.144531 11.957031 8.644531 Z M 11.957031 8.644531 "/>
</svg>