<?xml version="1.0" encoding="UTF-8"?>
<svg xmlns="http://www.w3.org/2000/svg" xmlns:xlink="http://www.w3.org/1999/xlink" width="14px" height="14px" viewBox="0 0 14 14">
    <path d="M 13.5625 6.125 L 8.035156 6.125 L 5.652344 5.390625 C 5.089844 5.21875 4.738281 4.660156 4.824219 4.074219 C 4.914062 3.492188 5.414062 3.0625 6.003906 3.0625 L 7.828125 3.0625 C 8.347656 3.0625 8.820312 3.355469 9.050781 3.816406 C 9.160156 4.03125 9.421875 4.121094 9.636719 4.011719 L 10.8125 3.425781 C 11.027344 3.316406 11.117188 3.054688 11.007812 2.839844 L 10.992188 2.8125 C 10.398438 1.625 9.1875 0.875 7.863281 0.875 L 6.003906 0.875 C 5.050781 0.875 4.140625 1.277344 3.5 1.984375 C 2.859375 2.691406 2.546875 3.636719 2.640625 4.582031 C 2.695312 5.15625 2.914062 5.671875 3.234375 6.125 L 0.4375 6.125 C 0.195312 6.125 0 6.320312 0 6.5625 L 0 7.4375 C 0 7.679688 0.195312 7.875 0.4375 7.875 L 13.5625 7.875 C 13.804688 7.875 14 7.679688 14 7.4375 L 14 6.5625 C 14 6.320312 13.804688 6.125 13.5625 6.125 Z M 8.632812 8.75 C 8.976562 8.964844 9.1875 9.339844 9.1875 9.746094 C 9.1875 10.402344 8.652344 10.9375 7.996094 10.9375 L 6.171875 10.9375 C 5.652344 10.9375 5.179688 10.644531 4.949219 10.183594 C 4.839844 9.96875 4.578125 9.878906 4.363281 9.988281 L 3.1875 10.574219 C 2.972656 10.683594 2.882812 10.945312 2.992188 11.160156 L 3.007812 11.1875 C 3.601562 12.375 4.8125 13.125 6.136719 13.125 L 7.996094 13.125 C 8.949219 13.125 9.859375 12.722656 10.5 12.015625 C 11.140625 11.308594 11.453125 10.363281 11.359375 9.417969 C 11.335938 9.1875 11.289062 8.964844 11.214844 8.75 Z M 8.632812 8.75 "/>
</svg>