<?xml version="1.0" encoding="UTF-8"?>
<svg xmlns="http://www.w3.org/2000/svg" xmlns:xlink="http://www.w3.org/1999/xlink" width="11px" height="14px" viewBox="0 0 11 14">
    <path d="M 9.554688 6.507812 C 9.988281 6 10.257812 5.378906 10.328125 4.726562 C 10.539062 2.636719 8.824219 0.875 6.6875 0.875 L 0.972656 0.875 C 0.722656 0.875 0.515625 1.070312 0.515625 1.3125 L 0.515625 2.625 C 0.515625 2.867188 0.722656 3.0625 0.972656 3.0625 L 1.886719 3.0625 L 1.886719 10.9375 L 0.972656 10.9375 C 0.722656 10.9375 0.515625 11.132812 0.515625 11.375 L 0.515625 12.6875 C 0.515625 12.929688 0.722656 13.125 0.972656 13.125 L 6.96875 13.125 C 9 13.125 10.8125 11.710938 11.007812 9.777344 C 11.144531 8.453125 10.539062 7.261719 9.554688 6.507812 Z M 4.171875 3.0625 L 6.6875 3.0625 C 7.445312 3.0625 8.0625 3.648438 8.0625 4.375 C 8.0625 5.101562 7.445312 5.6875 6.6875 5.6875 L 4.171875 5.6875 Z M 6.6875 10.9375 L 4.171875 10.9375 L 4.171875 7.875 L 6.6875 7.875 C 7.574219 7.875 8.289062 8.5625 8.289062 9.40625 C 8.289062 10.25 7.574219 10.9375 6.6875 10.9375 Z M 6.6875 10.9375 "/>
</svg>