<?xml version="1.0" encoding="UTF-8"?>
<svg xmlns="http://www.w3.org/2000/svg" xmlns:xlink="http://www.w3.org/1999/xlink" width="14px" height="14px" viewBox="0 0 14 14">
    <path d="M 12.6875 0.875 L 1.3125 0.875 C 0.585938 0.875 0 1.460938 0 2.1875 L 0 11.8125 C 0 12.539062 0.585938 13.125 1.3125 13.125 L 12.6875 13.125 C 13.414062 13.125 14 12.539062 14 11.8125 L 14 2.1875 C 14 1.460938 13.414062 0.875 12.6875 0.875 Z M 6.125 11.375 L 1.75 11.375 L 1.75 8.75 L 6.125 8.75 Z M 6.125 7 L 1.75 7 L 1.75 4.375 L 6.125 4.375 Z M 12.25 11.375 L 7.875 11.375 L 7.875 8.75 L 12.25 8.75 Z M 12.25 7 L 7.875 7 L 7.875 4.375 L 12.25 4.375 Z M 12.25 7 "/>
</svg>