<?xml version="1.0" encoding="UTF-8"?>
<svg xmlns="http://www.w3.org/2000/svg" xmlns:xlink="http://www.w3.org/1999/xlink" width="12px" height="14px" viewBox="0 0 12 13">
    <path d="M 0.855469 1.625 L 1.714844 1.625 L 1.714844 5.6875 C 1.714844 7.925781 3.636719 9.75 6 9.75 C 8.363281 9.75 10.285156 7.925781 10.285156 5.6875 L 10.285156 1.625 L 11.144531 1.625 C 11.378906 1.625 11.570312 1.441406 11.570312 1.21875 L 11.570312 0.40625 C 11.570312 0.183594 11.378906 0 11.144531 0 L 7.285156 0 C 7.050781 0 6.855469 0.183594 6.855469 0.40625 L 6.855469 1.21875 C 6.855469 1.441406 7.050781 1.625 7.285156 1.625 L 8.144531 1.625 L 8.144531 5.6875 C 8.144531 6.808594 7.183594 7.71875 6 7.71875 C 4.816406 7.71875 3.855469 6.808594 3.855469 5.6875 L 3.855469 1.625 L 4.714844 1.625 C 4.949219 1.625 5.144531 1.441406 5.144531 1.21875 L 5.144531 0.40625 C 5.144531 0.183594 4.949219 0 4.714844 0 L 0.855469 0 C 0.621094 0 0.429688 0.183594 0.429688 0.40625 L 0.429688 1.21875 C 0.429688 1.441406 0.621094 1.625 0.855469 1.625 Z M 11.570312 11.375 L 0.429688 11.375 C 0.191406 11.375 0 11.558594 0 11.78125 L 0 12.59375 C 0 12.816406 0.191406 13 0.429688 13 L 11.570312 13 C 11.808594 13 12 12.816406 12 12.59375 L 12 11.78125 C 12 11.558594 11.808594 11.375 11.570312 11.375 Z M 11.570312 11.375 "/>
</svg>